<svg width="978" height="873" viewBox="0 0 978 873" fill="none" xmlns="http://www.w3.org/2000/svg">
<g clip-path="url(#clip0_301_2)">
<path d="M780.258 314.068C856.223 314.068 917.805 252.483 917.805 176.515C917.805 100.547 856.223 38.9622 780.258 38.9622C704.292 38.9622 642.71 100.547 642.71 176.515C642.71 252.483 704.292 314.068 780.258 314.068Z" fill="#0096E0"/>
<path d="M200.681 856.979C300.677 856.979 381.74 775.913 381.74 675.914C381.74 575.914 300.677 494.849 200.681 494.849C100.685 494.849 19.6226 575.914 19.6226 675.914C19.6226 775.913 100.685 856.979 200.681 856.979Z" fill="#005886"/>
<path d="M0.663574 743.41H969.658" stroke="#003452" stroke-width="2.22" stroke-miterlimit="10"/>
<path d="M96.0273 110.82C119.691 110.82 138.875 91.6354 138.875 67.9706C138.875 44.3057 119.691 25.1216 96.0273 25.1216C72.3634 25.1216 53.18 44.3057 53.18 67.9706C53.18 91.6354 72.3634 110.82 96.0273 110.82Z" fill="white" stroke="#003452" stroke-width="2.45" stroke-miterlimit="10" stroke-linecap="round"/>
<path d="M952.595 466.219C966.207 466.219 977.242 455.184 977.242 441.572C977.242 427.959 966.207 416.924 952.595 416.924C938.983 416.924 927.948 427.959 927.948 441.572C927.948 455.184 938.983 466.219 952.595 466.219Z" fill="white" stroke="#003452" stroke-width="1.68" stroke-miterlimit="10" stroke-linecap="round"/>
<path d="M37.2544 631.548C57.463 631.548 73.8453 615.165 73.8453 594.956C73.8453 574.746 57.463 558.364 37.2544 558.364C17.0459 558.364 0.663574 574.746 0.663574 594.956C0.663574 615.165 17.0459 631.548 37.2544 631.548Z" stroke="#0096E0" stroke-width="1.49" stroke-miterlimit="10" stroke-linecap="round"/>
<path d="M875.811 698.571C888.847 698.571 899.415 688.002 899.415 674.966C899.415 661.929 888.847 651.361 875.811 651.361C862.775 651.361 852.207 661.929 852.207 674.966C852.207 688.002 862.775 698.571 875.811 698.571Z" fill="white" stroke="#003452" stroke-width="1.49" stroke-miterlimit="10" stroke-linecap="round"/>
<path d="M574.363 114.517C584.258 114.517 592.279 106.495 592.279 96.5997C592.279 86.7045 584.258 78.6828 574.363 78.6828C564.468 78.6828 556.447 86.7045 556.447 96.5997C556.447 106.495 564.468 114.517 574.363 114.517Z" fill="white" stroke="#003452" stroke-width="1.49" stroke-miterlimit="10" stroke-linecap="round"/>
<path d="M921.694 674.191C923.536 653.72 909.029 635.685 889.292 633.909C869.554 632.132 852.061 647.287 850.218 667.758C848.376 688.229 862.883 706.265 882.62 708.041C902.358 709.817 919.851 694.662 921.694 674.191Z" fill="white" stroke="#003452" stroke-width="1.72695" stroke-miterlimit="10"/>
<path d="M906.293 673.51C907.639 657.808 896.467 644.028 881.34 642.731C866.213 641.435 852.859 653.112 851.513 668.813C850.167 684.515 861.339 698.295 876.466 699.592C891.593 700.889 904.947 689.211 906.293 673.51Z" fill="white"/>
<path d="M906.293 673.51C907.639 657.808 896.467 644.028 881.34 642.731C866.213 641.435 852.859 653.112 851.513 668.813C850.167 684.515 861.339 698.295 876.466 699.592C891.593 700.889 904.947 689.211 906.293 673.51Z" stroke="#003452" stroke-width="1.72" stroke-miterlimit="10" stroke-linecap="round" stroke-dasharray="5.16 7.22"/>
<path d="M885.291 634.582C890.704 634.537 896.054 635.747 900.922 638.115C905.79 640.483 910.043 643.946 913.35 648.233C919.341 655.963 922.123 665.704 921.116 675.433C920.11 685.161 915.393 694.127 907.947 700.467C904.003 703.821 899.364 706.259 894.364 707.603C889.364 708.947 884.128 709.165 879.034 708.24C887.197 708.1 895.064 705.154 901.311 699.898C908.723 693.532 913.407 684.562 914.395 674.841C915.383 665.12 912.599 655.391 906.619 647.664C901.36 640.829 893.767 636.172 885.291 634.582V634.582Z" fill="white" stroke="#003452" stroke-width="1.72" stroke-miterlimit="10"/>
<path d="M904.155 703.311L897.424 702.742" stroke="#003452" stroke-width="1.72" stroke-miterlimit="10"/>
<path d="M913.919 694.115L907.283 693.546" stroke="#003452" stroke-width="1.72" stroke-miterlimit="10"/>
<path d="M919.038 684.635L912.307 684.066" stroke="#003452" stroke-width="1.72" stroke-miterlimit="10"/>
<path d="M921.313 673.449L914.582 672.88" stroke="#003452" stroke-width="1.72" stroke-miterlimit="10"/>
<path d="M920.27 662.358L913.539 661.789" stroke="#003452" stroke-width="1.72" stroke-miterlimit="10"/>
<path d="M916.288 652.593L909.653 652.025" stroke="#003452" stroke-width="1.72" stroke-miterlimit="10"/>
<path d="M908.326 643.019L901.69 642.45" stroke="#003452" stroke-width="1.72" stroke-miterlimit="10"/>
<path d="M142.06 94.1144C160.371 69.3675 155.871 34.9917 132.009 17.334C108.147 -0.323783 73.9587 5.42311 55.6477 30.17C37.3366 54.9169 41.8367 89.2927 65.6989 106.95C89.5611 124.608 123.749 118.861 142.06 94.1144Z" fill="white" stroke="#003452" stroke-width="2.59" stroke-miterlimit="10"/>
<path d="M132.078 86.7275C146.154 67.7044 142.69 41.2759 124.341 27.6978C105.992 14.1197 79.7059 18.5338 65.6301 37.5569C51.5542 56.58 55.0184 83.0085 73.3674 96.5866C91.7165 110.165 118.002 105.751 132.078 86.7275Z" fill="white"/>
<path d="M132.078 86.7275C146.154 67.7044 142.69 41.2759 124.341 27.6978C105.992 14.1197 79.7059 18.5338 65.6301 37.5569C51.5542 56.58 55.0184 83.0085 73.3674 96.5866C91.7165 110.165 118.002 105.751 132.078 86.7275Z" stroke="#003452" stroke-width="2.59" stroke-miterlimit="10" stroke-linecap="round" stroke-dasharray="7.75 10.85"/>
<path d="M61.8064 103.899C54.8508 99.6977 48.963 93.9419 44.6046 87.0834C40.2463 80.2249 37.5358 72.4499 36.6857 64.3682C33.2731 34.2223 54.7915 6.25672 84.652 1.80119C92.3619 0.630772 100.235 1.17966 107.708 3.40854C115.181 5.63742 122.069 9.49115 127.878 14.6938C117.336 8.41142 104.934 5.99798 92.8043 7.8683C62.9439 12.3238 41.4254 40.2894 44.7433 70.3405C46.1319 83.2383 52.203 95.1786 61.8064 103.899V103.899Z" fill="white" stroke="#003452" stroke-width="2.59" stroke-miterlimit="10"/>
<path d="M91.8564 1.23239L100.009 7.2047" stroke="#003452" stroke-width="2.59" stroke-miterlimit="10"/>
<path d="M72.139 5.21393L80.1966 11.281" stroke="#003452" stroke-width="2.59" stroke-miterlimit="10"/>
<path d="M58.2041 13.3666L66.3565 19.3389" stroke="#003452" stroke-width="2.59" stroke-miterlimit="10"/>
<path d="M46.4496 25.88L54.5071 31.9471" stroke="#003452" stroke-width="2.59" stroke-miterlimit="10"/>
<path d="M39.0555 40.953L47.2079 46.9253" stroke="#003452" stroke-width="2.59" stroke-miterlimit="10"/>
<path d="M36.4013 56.4052L44.4589 62.4723" stroke="#003452" stroke-width="2.59" stroke-miterlimit="10"/>
<path d="M38.9608 74.9857L47.1131 81.0528" stroke="#003452" stroke-width="2.59" stroke-miterlimit="10"/>
<path d="M313.921 157.644L285.354 227.999C280.902 238.962 286.163 251.451 297.104 255.894C308.045 260.337 320.523 255.051 324.974 244.088L353.541 173.733C357.993 162.77 352.732 150.281 341.791 145.838C330.85 141.396 318.372 146.681 313.921 157.644Z" fill="white" stroke="#003452" stroke-width="2" stroke-miterlimit="10"/>
<path d="M538.436 147.033H462.505C450.673 147.033 441.081 156.606 441.081 168.414C441.081 180.223 450.673 189.796 462.505 189.796H538.436C550.268 189.796 559.859 180.223 559.859 168.414C559.859 156.606 550.268 147.033 538.436 147.033Z" fill="white" stroke="#003452" stroke-width="1.63" stroke-miterlimit="10"/>
<path d="M383.351 218.605L392.072 281.457" stroke="#003452" stroke-width="1.57" stroke-miterlimit="10"/>
<path d="M338.323 147.033L341.926 305.441L450.655 311.034L459.377 146.369C458.429 146.274 456.722 146.653 455.585 146.559C444.399 145.326 429.042 142.767 429.042 142.767L389.892 122.101C389.892 122.101 380.886 144.378 338.323 147.033Z" fill="#003452" stroke="#003452" stroke-width="1.45" stroke-miterlimit="10"/>
<path d="M436.057 142.577C436.057 142.577 444.873 163.622 431.317 167.13C417.762 170.637 414.349 154.237 414.349 154.237C414.349 154.237 423.544 158.314 429.042 142.672L436.057 142.577Z" fill="white" stroke="white" stroke-width="1.45" stroke-miterlimit="10"/>
<path d="M412.832 154.142C412.832 154.142 402.5 174.524 384.394 160.304C362.307 142.861 393.21 114.517 393.21 114.517C393.21 114.517 384.583 139.923 412.832 154.142Z" fill="white" stroke="white" stroke-width="1.45" stroke-miterlimit="10"/>
<path d="M410.747 158.977C416.055 161.347 422.596 158.219 425.25 151.962L434.351 131.012L397.665 103.52L394.442 112.621C387.712 131.77 394.821 151.962 410.747 158.977Z" fill="white" stroke="#003452" stroke-width="1.54" stroke-miterlimit="10"/>
<path d="M429.042 142.767C429.042 142.767 426.388 149.687 425.25 151.962C424.113 154.237 405.249 157.555 397.949 134.519C392.83 118.024 399.845 105.606 399.845 105.606C399.845 105.606 399.94 122.669 429.042 142.767Z" fill="#003452"/>
<path d="M397.475 104.752C398.172 105.508 399.009 106.12 399.94 106.554L399.751 109.966C395.011 131.012 408.472 145.042 416.15 148.644C428.284 154.142 445.157 151.204 458.239 124.471C459.756 121.437 462.031 116.887 463.453 113.663C454.466 107.178 446.941 98.878 441.366 89.3002C441.366 89.3002 433.213 97.2633 425.914 95.1777C420.235 93.5447 414.434 92.3718 408.566 91.6702C407.542 90.7864 406.297 90.1967 404.964 89.9638C402.956 89.6573 400.904 90.0693 399.17 91.1271C397.436 92.185 396.131 93.8208 395.485 95.7465C394.974 97.2877 394.889 98.9383 395.24 100.524C395.59 102.109 396.363 103.57 397.475 104.752V104.752Z" fill="white" stroke="#003452" stroke-width="1.45" stroke-miterlimit="10" stroke-linecap="round"/>
<path d="M392.546 94.7037C392.546 94.7037 387.996 108.829 392.641 117.171L397.381 105.321C396.266 104.14 395.499 102.674 395.164 101.085C394.83 99.4961 394.941 97.8455 395.485 96.3153C396.812 92.239 400.888 89.5846 404.869 90.4378C406.359 90.8192 407.655 91.7355 408.512 93.0119C409.369 94.2883 409.726 95.8354 409.514 97.3581C411.221 96.3153 412.169 93.5662 422.217 96.5049C429.421 98.5905 437.384 94.3246 437.384 94.3246C444.778 106.838 454.258 112.052 460.325 116.318C470.183 123.238 480.421 120.299 484.023 118.783C490.943 116.602 493.882 108.26 492.27 100.866C491.832 98.704 490.879 96.6796 489.493 94.9637C488.107 93.2477 486.329 91.8905 484.308 91.0066C481.938 84.9395 477.198 79.7256 468.287 77.9244C468.287 77.9244 457.955 35.1702 421.174 50.9068C421.174 50.9068 389.987 54.4144 392.546 94.7037Z" fill="#003452"/>
<path d="M485.35 90.7222C485.35 90.7222 473.311 85.5083 468.382 95.7465" stroke="white" stroke-width="1.45" stroke-miterlimit="10" stroke-linecap="round"/>
<path d="M470.088 77.7348C470.088 77.7348 457.575 73.7533 453.689 84.4655" stroke="white" stroke-width="1.45" stroke-miterlimit="10" stroke-linecap="round"/>
<path d="M424.397 48.7264C424.397 48.7264 412.548 55.0779 416.814 65.411" stroke="white" stroke-width="1.45" stroke-miterlimit="10" stroke-linecap="round"/>
<path d="M397.949 97.4529L403.827 100.012C403.877 100.012 403.925 99.9925 403.961 99.9569C403.996 99.9214 404.016 99.8732 404.016 99.8229L401.267 93.187" stroke="#003452" stroke-width="1.45" stroke-miterlimit="10"/>
<path d="M471.036 580.831L433.118 581.968L432.17 550.021H470.088L471.036 580.831Z" fill="#0096E0" stroke="#003452" stroke-width="2" stroke-miterlimit="10"/>
<path d="M347.349 582.204L385.266 582.271L385.32 551.461L347.402 551.395L347.349 582.204Z" fill="#0096E0" stroke="#003452" stroke-width="2" stroke-miterlimit="10"/>
<path d="M406.481 587.561H325.052L331.688 567.275C332.66 564.314 334.537 561.734 337.054 559.897C339.571 558.06 342.601 557.059 345.717 557.036H385.91C389.018 557.038 392.046 558.02 394.565 559.84C397.083 561.661 398.964 564.229 399.94 567.18L406.481 587.561Z" fill="#005886" stroke="#003452" stroke-width="2" stroke-miterlimit="10"/>
<path d="M379.749 567.085H351.879C336.539 567.085 324.104 579.521 324.104 594.861V594.927C324.104 610.268 336.539 622.703 351.879 622.703H379.749C395.088 622.703 407.524 610.268 407.524 594.927V594.861C407.524 579.521 395.088 567.085 379.749 567.085Z" fill="white" stroke="#003452" stroke-width="2" stroke-miterlimit="10"/>
<path d="M326.474 606.142C326.474 606.142 341.831 618.94 354.818 610.977C365.814 604.246 370.933 608.133 376.81 610.977C382.687 613.821 398.613 615.148 404.964 606.521" stroke="#003452" stroke-width="2" stroke-miterlimit="10"/>
<path d="M347.708 572.299H382.593" stroke="#003452" stroke-width="2" stroke-miterlimit="10"/>
<path d="M347.708 577.513H382.593" stroke="#003452" stroke-width="2" stroke-miterlimit="10"/>
<path d="M355.766 561.208H375.957" stroke="#003452" stroke-width="2" stroke-miterlimit="10"/>
<path d="M491.986 587.087H410.557L417.193 566.99C418.177 563.974 420.093 561.348 422.666 559.491C425.238 557.633 428.334 556.641 431.507 556.657H471.226C474.407 556.662 477.505 557.674 480.076 559.547C482.647 561.42 484.56 564.059 485.54 567.085L491.986 587.087Z" fill="#005886" stroke="#003452" stroke-width="2" stroke-miterlimit="10"/>
<path d="M465.776 566.325L437.907 566.276C422.567 566.25 410.11 578.664 410.083 594.004L410.083 594.07C410.056 609.41 422.47 621.868 437.81 621.895L465.679 621.943C481.019 621.97 493.476 609.556 493.503 594.216L493.503 594.149C493.53 578.809 481.116 566.352 465.776 566.325Z" fill="white" stroke="#003452" stroke-width="2" stroke-miterlimit="10"/>
<path d="M411.979 605.573C411.979 605.573 427.336 618.371 440.228 610.503C451.224 603.772 456.438 607.659 462.315 610.503C468.192 613.347 484.118 614.769 490.469 606.047" stroke="#003452" stroke-width="2" stroke-miterlimit="10"/>
<path d="M433.308 571.825L468.098 571.92" stroke="#003452" stroke-width="2" stroke-miterlimit="10"/>
<path d="M433.308 577.039L468.098 577.134" stroke="#003452" stroke-width="2" stroke-miterlimit="10"/>
<path d="M441.271 560.639L461.557 560.734" stroke="#003452" stroke-width="2" stroke-miterlimit="10"/>
<path d="M451.888 111.388C451.888 111.388 455.585 112.526 456.722 118.403" stroke="#003452" stroke-width="1.49" stroke-miterlimit="10" stroke-linecap="round"/>
<path d="M429.975 110.486C430.756 109.004 430.639 107.407 429.712 106.918C428.786 106.43 427.402 107.235 426.621 108.717C425.839 110.199 425.957 111.797 426.883 112.285C427.809 112.773 429.193 111.968 429.975 110.486Z" fill="#003452"/>
<path d="M440.323 116.413L437.479 130.822C437.46 130.923 437.418 131.018 437.357 131.101C437.295 131.183 437.215 131.249 437.123 131.295C437.031 131.341 436.93 131.365 436.827 131.365C436.724 131.365 436.623 131.342 436.531 131.296L429.895 127.599" stroke="#003452" stroke-width="1.49" stroke-miterlimit="10" stroke-linecap="round"/>
<path d="M451.968 122.16C452.749 120.678 452.632 119.08 451.705 118.592C450.779 118.104 449.395 118.909 448.614 120.391C447.832 121.873 447.95 123.47 448.876 123.959C449.802 124.447 451.186 123.642 451.968 122.16Z" fill="#003452"/>
<path d="M423.449 102.288C425.128 101.479 426.959 101.035 428.822 100.986C430.685 100.937 432.537 101.284 434.256 102.003" stroke="#003452" stroke-width="1.49" stroke-miterlimit="10" stroke-linecap="round"/>
<path d="M421.079 124.471C421.079 124.471 415.486 132.434 424.208 137.458" stroke="#003452" stroke-width="1.49" stroke-miterlimit="10" stroke-linecap="round"/>
<path d="M190.822 515.42H183.239V752.255H190.822V515.42Z" fill="white" stroke="#003452" stroke-width="2" stroke-miterlimit="10"/>
<path d="M187.125 768.627C198.12 768.627 207.032 759.714 207.032 748.719C207.032 737.724 198.12 728.811 187.125 728.811C176.131 728.811 167.218 737.724 167.218 748.719C167.218 759.714 176.131 768.627 187.125 768.627Z" fill="white" stroke="#003452" stroke-width="2" stroke-miterlimit="10"/>
<path d="M187.125 760.569C193.67 760.569 198.975 755.264 198.975 748.719C198.975 742.175 193.67 736.869 187.125 736.869C180.581 736.869 175.276 742.175 175.276 748.719C175.276 755.264 180.581 760.569 187.125 760.569Z" fill="#003452" stroke="#003452" stroke-width="2" stroke-miterlimit="10"/>
<path d="M759.592 515.42H752.009V752.255H759.592V515.42Z" fill="white" stroke="#003452" stroke-width="2" stroke-miterlimit="10"/>
<path d="M755.895 768.627C766.89 768.627 775.802 759.714 775.802 748.719C775.802 737.724 766.89 728.811 755.895 728.811C744.901 728.811 735.988 737.724 735.988 748.719C735.988 759.714 744.901 768.627 755.895 768.627Z" fill="white" stroke="#003452" stroke-width="2" stroke-miterlimit="10"/>
<path d="M755.895 760.569C762.44 760.569 767.745 755.264 767.745 748.719C767.745 742.175 762.44 736.869 755.895 736.869C749.351 736.869 744.046 742.175 744.046 748.719C744.046 755.264 749.351 760.569 755.895 760.569Z" fill="#003452" stroke="#003452" stroke-width="2" stroke-miterlimit="10"/>
<path d="M496.441 622.542H324.768C315.239 622.542 307.515 630.267 307.515 639.796V794.052C307.515 803.58 315.239 811.305 324.768 811.305H496.441C505.97 811.305 513.694 803.58 513.694 794.052V639.796C513.694 630.267 505.97 622.542 496.441 622.542Z" fill="white" stroke="#003452" stroke-width="2.09" stroke-miterlimit="10"/>
<path d="M107.308 521.961C106.895 519.804 106.673 517.616 106.644 515.42V225.336C106.644 215.782 110.44 206.619 117.195 199.864C123.95 193.108 133.113 189.313 142.666 189.313H736.083C745.637 189.313 754.799 193.108 761.555 199.864C768.31 206.619 772.105 215.782 772.105 225.336V515.42C772.105 520.151 771.173 524.835 769.363 529.205C767.553 533.576 764.9 537.547 761.555 540.892C758.21 544.237 754.239 546.891 749.868 548.701C745.498 550.512 740.814 551.443 736.083 551.443H142.666C134.254 551.447 126.106 548.497 119.645 543.11C113.183 537.722 108.817 530.238 107.308 521.961Z" fill="white" stroke="#003452" stroke-width="2" stroke-miterlimit="10"/>
<path d="M765.849 189.787H172.432C152.538 189.787 136.41 205.915 136.41 225.81V515.894C136.41 535.789 152.538 551.917 172.432 551.917H765.849C785.743 551.917 801.871 535.789 801.871 515.894V225.81C801.871 205.915 785.743 189.787 765.849 189.787Z" fill="white" stroke="#003452" stroke-width="2" stroke-miterlimit="10"/>
<path d="M113.375 203.912H143.614" stroke="#003452" stroke-width="2" stroke-miterlimit="10"/>
<path d="M107.403 218.511H136.41" stroke="#003452" stroke-width="2" stroke-miterlimit="10"/>
<path d="M106.834 232.73H136.41" stroke="#003452" stroke-width="2" stroke-miterlimit="10"/>
<path d="M106.834 252.733H136.41" stroke="#003452" stroke-width="2" stroke-miterlimit="10"/>
<path d="M106.834 272.83H136.41" stroke="#003452" stroke-width="2" stroke-miterlimit="10"/>
<path d="M106.834 292.928H136.41" stroke="#003452" stroke-width="2" stroke-miterlimit="10"/>
<path d="M106.739 312.93H136.41" stroke="#003452" stroke-width="2" stroke-miterlimit="10"/>
<path d="M106.739 333.027H136.41" stroke="#003452" stroke-width="2" stroke-miterlimit="10"/>
<path d="M106.739 353.125H136.41" stroke="#003452" stroke-width="2" stroke-miterlimit="10"/>
<path d="M106.739 373.222H136.41" stroke="#003452" stroke-width="2" stroke-miterlimit="10"/>
<path d="M106.739 393.224H136.41" stroke="#003452" stroke-width="2" stroke-miterlimit="10"/>
<path d="M106.739 413.322H136.41" stroke="#003452" stroke-width="2" stroke-miterlimit="10"/>
<path d="M106.739 433.419H136.41" stroke="#003452" stroke-width="2" stroke-miterlimit="10"/>
<path d="M106.739 453.422H136.41" stroke="#003452" stroke-width="2" stroke-miterlimit="10"/>
<path d="M106.644 473.519H136.41" stroke="#003452" stroke-width="2" stroke-miterlimit="10"/>
<path d="M106.644 493.616H136.41" stroke="#003452" stroke-width="2" stroke-miterlimit="10"/>
<path d="M106.644 513.619H136.41" stroke="#003452" stroke-width="2" stroke-miterlimit="10"/>
<path d="M539.763 431.523H512.841C505.564 431.523 499.664 437.423 499.664 444.7V487.862C499.664 495.139 505.564 501.039 512.841 501.039H539.763C547.04 501.039 552.939 495.139 552.939 487.862V444.7C552.939 437.423 547.04 431.523 539.763 431.523Z" fill="white" stroke="#003452" stroke-width="2" stroke-miterlimit="10" stroke-linecap="round"/>
<path d="M268.27 374.739C313.399 374.739 349.983 338.153 349.983 293.022C349.983 247.892 313.399 211.306 268.27 211.306C223.141 211.306 186.557 247.892 186.557 293.022C186.557 338.153 223.141 374.739 268.27 374.739Z" fill="white"/>
<path d="M326.121 350.815C358.032 318.903 358.032 267.163 326.121 235.251C294.21 203.339 242.472 203.339 210.561 235.251C178.65 267.163 178.65 318.903 210.561 350.815C242.472 382.727 294.21 382.727 326.121 350.815Z" stroke="#003452" stroke-width="1.91" stroke-miterlimit="10" stroke-linecap="round" stroke-dasharray="16.94 16.94"/>
<path d="M654.37 260.412H610.669C607.371 260.412 604.697 263.086 604.697 266.384V286.642C604.697 289.941 607.371 292.615 610.669 292.615H654.37C657.668 292.615 660.342 289.941 660.342 286.642V266.384C660.342 263.086 657.668 260.412 654.37 260.412Z" fill="white" stroke="#003452" stroke-width="2" stroke-miterlimit="10"/>
<path d="M612.091 270.555H647.166" stroke="#003452" stroke-width="2" stroke-miterlimit="10" stroke-linecap="round"/>
<path d="M612.091 281.931H647.166" stroke="#003452" stroke-width="2" stroke-miterlimit="10" stroke-linecap="round"/>
<path d="M463.358 334.544C454.111 334.525 445.066 337.25 437.368 342.374C429.67 347.498 423.666 354.791 420.114 363.329C416.562 371.867 415.623 381.267 417.416 390.339C419.208 399.411 423.652 407.748 430.184 414.293C436.716 420.839 445.043 425.299 454.111 427.11C463.179 428.921 472.58 428.001 481.125 424.467C489.671 420.932 496.975 414.942 502.114 407.255C507.254 399.567 509.997 390.527 509.997 381.28C509.997 368.901 505.086 357.028 496.343 348.266C487.599 339.504 475.736 334.569 463.358 334.544V334.544ZM463.358 417.493C456.169 417.512 449.137 415.396 443.152 411.413C437.166 407.431 432.498 401.762 429.739 395.123C426.979 388.485 426.252 381.177 427.65 374.125C429.048 367.073 432.507 360.595 437.591 355.512C442.674 350.428 449.152 346.968 456.203 345.57C463.255 344.172 470.563 344.899 477.201 347.659C483.839 350.419 489.508 355.087 493.49 361.073C497.473 367.058 499.588 374.091 499.57 381.28C499.545 390.876 495.721 400.073 488.936 406.859C482.15 413.645 472.954 417.468 463.358 417.493Z" fill="white" stroke="#003452" stroke-width="2" stroke-miterlimit="10"/>
<path d="M463.358 344.972C456.173 344.953 449.144 347.067 443.161 351.045C437.178 355.023 432.51 360.687 429.748 367.32C426.985 373.952 426.253 381.256 427.643 388.305C429.033 395.354 432.483 401.832 437.557 406.92C442.631 412.007 449.1 415.474 456.145 416.883C463.191 418.292 470.495 417.578 477.135 414.833C483.775 412.088 489.451 407.434 493.444 401.461C497.438 395.488 499.57 388.465 499.57 381.28C499.545 371.674 495.725 362.468 488.942 355.667C482.159 348.866 472.963 345.022 463.358 344.972V344.972ZM463.358 406.875C458.269 406.894 453.289 405.401 449.05 402.585C444.811 399.77 441.504 395.758 439.548 391.06C437.591 386.362 437.075 381.189 438.063 376.196C439.051 371.204 441.5 366.618 445.098 363.019C448.697 359.421 453.283 356.972 458.275 355.984C463.267 354.996 468.44 355.512 473.138 357.469C477.836 359.425 481.847 362.732 484.663 366.971C487.478 371.211 488.971 376.191 488.953 381.28C488.953 388.068 486.256 394.579 481.456 399.379C476.656 404.179 470.146 406.875 463.358 406.875V406.875Z" fill="#005886" stroke="#003452" stroke-width="2" stroke-miterlimit="10"/>
<path d="M463.358 355.589C458.273 355.571 453.297 357.061 449.06 359.873C444.823 362.684 441.515 366.69 439.557 371.383C437.598 376.075 437.075 381.244 438.056 386.233C439.036 391.223 441.476 395.81 445.064 399.412C448.653 403.014 453.231 405.47 458.216 406.469C463.202 407.468 468.372 406.965 473.072 405.024C477.772 403.082 481.789 399.789 484.616 395.562C487.443 391.336 488.953 386.365 488.953 381.28C488.953 374.483 486.259 367.963 481.462 363.147C476.665 358.332 470.155 355.614 463.358 355.589ZM463.358 394.552C460.733 394.552 458.167 393.773 455.985 392.315C453.802 390.857 452.101 388.784 451.097 386.359C450.092 383.934 449.83 381.265 450.342 378.691C450.854 376.116 452.118 373.751 453.974 371.895C455.83 370.039 458.194 368.775 460.769 368.263C463.343 367.751 466.012 368.014 468.437 369.018C470.862 370.023 472.934 371.724 474.393 373.906C475.851 376.089 476.629 378.655 476.629 381.28C476.629 384.8 475.231 388.175 472.742 390.664C470.253 393.153 466.878 394.552 463.358 394.552V394.552Z" fill="white" stroke="#003452" stroke-width="2" stroke-miterlimit="10"/>
<path d="M463.358 394.552C470.688 394.552 476.629 388.61 476.629 381.28C476.629 373.95 470.688 368.008 463.358 368.008C456.028 368.008 450.087 373.95 450.087 381.28C450.087 388.61 456.028 394.552 463.358 394.552Z" fill="#0096E0" stroke="#003452" stroke-width="2" stroke-miterlimit="10"/>
<path d="M641.638 330.845L772.454 330.16L771.985 240.672L641.17 241.357L641.638 330.845Z" fill="white" stroke="#003452" stroke-width="2" stroke-miterlimit="10"/>
<path d="M771.97 240.764L641.154 241.449L641.088 228.841C641.083 227.886 641.458 226.968 642.13 226.288C642.802 225.609 643.716 225.225 644.672 225.22L768.377 224.572C769.333 224.567 770.251 224.942 770.93 225.614C771.609 226.286 771.993 227.2 771.998 228.156L772.064 240.764L771.97 240.764Z" fill="#0096E0" stroke="#003452" stroke-width="2" stroke-miterlimit="10"/>
<path d="M741.98 270.789L762.834 270.68L762.725 249.844L741.871 249.953L741.98 270.789Z" stroke="#003452" stroke-width="2" stroke-miterlimit="10"/>
<path d="M650.594 271.163L671.449 271.054L671.34 250.217L650.485 250.327L650.594 271.163Z" stroke="#003452" stroke-width="2" stroke-miterlimit="10"/>
<path d="M696.287 270.929L717.142 270.82L717.032 249.983L696.178 250.092L696.287 270.929Z" stroke="#003452" stroke-width="2" stroke-miterlimit="10"/>
<path d="M743.866 291.667H764.721V270.83H743.866V291.667Z" stroke="#003452" stroke-width="2" stroke-miterlimit="10"/>
<path d="M650.651 296.476L671.506 296.366L671.397 275.53L650.542 275.639L650.651 296.476Z" stroke="#003452" stroke-width="2" stroke-miterlimit="10"/>
<path d="M696.439 296.241L717.293 296.132L717.184 275.295L696.33 275.404L696.439 296.241Z" stroke="#003452" stroke-width="2" stroke-miterlimit="10"/>
<path d="M742.284 321.414L763.138 321.304L763.029 300.468L742.174 300.577L742.284 321.414Z" fill="#0096E0" stroke="#003452" stroke-width="2" stroke-miterlimit="10"/>
<path d="M650.708 321.788L671.563 321.679L671.454 300.842L650.599 300.951L650.708 321.788Z" fill="white" stroke="#003452" stroke-width="2" stroke-miterlimit="10"/>
<path d="M696.591 321.553L717.445 321.444L717.336 300.607L696.482 300.717L696.591 321.553Z" stroke="#003452" stroke-width="2" stroke-miterlimit="10"/>
<path d="M671.528 249.794L650.768 270.65" stroke="#003452" stroke-width="2" stroke-miterlimit="10"/>
<path d="M650.673 249.889L671.623 270.555" stroke="#003452" stroke-width="2" stroke-miterlimit="10"/>
<path d="M763.1 274.631L742.435 295.582" stroke="#003452" stroke-width="2" stroke-miterlimit="10"/>
<path d="M742.34 274.726L763.195 295.487" stroke="#003452" stroke-width="2" stroke-miterlimit="10"/>
<path d="M763.289 307.527L752.862 320.135C752.754 320.221 752.628 320.282 752.494 320.315C752.36 320.348 752.22 320.35 752.085 320.323C751.949 320.296 751.822 320.24 751.71 320.158C751.599 320.076 751.507 319.971 751.44 319.85L742.435 300.511" stroke="#003452" stroke-width="2" stroke-miterlimit="10"/>
<path d="M669.727 224.578L669.822 232.636" stroke="#003452" stroke-width="2" stroke-miterlimit="10" stroke-linecap="round"/>
<path d="M676.836 224.483L677.026 230.835" stroke="#003452" stroke-width="2" stroke-miterlimit="10" stroke-linecap="round"/>
<path d="M768.882 434.557H697.786V544.523H768.882V434.557Z" fill="white" stroke="#003452" stroke-width="2" stroke-miterlimit="10"/>
<path d="M724.329 455.602H706.791V473.14H724.329V455.602Z" stroke="#003452" stroke-width="2" stroke-miterlimit="10"/>
<path d="M724.329 482.146H706.791V499.683H724.329V482.146Z" stroke="#003452" stroke-width="2" stroke-miterlimit="10"/>
<path d="M724.329 508.689H706.791V526.227H724.329V508.689Z" stroke="#003452" stroke-width="2" stroke-miterlimit="10"/>
<path d="M730.301 464.418H761.299" stroke="#003452" stroke-width="2" stroke-miterlimit="10" stroke-linecap="round"/>
<path d="M730.301 490.962H761.299" stroke="#003452" stroke-width="2" stroke-miterlimit="10" stroke-linecap="round"/>
<path d="M760.635 517.505H791.633" stroke="#003452" stroke-width="2" stroke-miterlimit="10" stroke-linecap="round"/>
<path d="M729.353 520.349H760.351" stroke="#003452" stroke-width="2" stroke-miterlimit="10" stroke-linecap="round"/>
<path d="M826.897 504.328H743.951C741.229 504.328 739.022 506.535 739.022 509.258V562.734C739.022 565.456 741.229 567.663 743.951 567.663H826.897C829.619 567.663 831.826 565.456 831.826 562.734V509.258C831.826 506.535 829.619 504.328 826.897 504.328Z" fill="white" stroke="#003452" stroke-width="2" stroke-miterlimit="10"/>
<path d="M740.728 505.466L782.628 534.095C783.455 534.649 784.428 534.945 785.424 534.945C786.42 534.945 787.393 534.649 788.22 534.095L830.025 505.466" fill="white"/>
<path d="M740.728 505.466L782.628 534.095C783.455 534.649 784.428 534.945 785.424 534.945C786.42 534.945 787.393 534.649 788.22 534.095L830.025 505.466" stroke="#003452" stroke-width="2" stroke-miterlimit="10"/>
<path d="M188.737 357.296H170.347V534.114H188.737V357.296Z" fill="#0096E0"/>
<path d="M224.854 384.977H206.464V534.114H224.854V384.977Z" fill="#0096E0"/>
<path d="M261.065 412.563H242.675V534.029H261.065V412.563Z" fill="#0096E0"/>
<path d="M297.277 440.245H278.887V534.029H297.277V440.245Z" fill="#0096E0"/>
<path d="M333.489 467.926H315.099V534.038H333.489V467.926Z" fill="#0096E0"/>
<path d="M369.701 495.512H351.31V533.943H369.701V495.512Z" fill="#0096E0"/>
<path d="M405.817 523.193H387.427V533.953H405.817V523.193Z" fill="#0096E0"/>
<path d="M304.008 242.495V268.28C304.008 269.562 303.755 270.832 303.264 272.017C302.774 273.201 302.055 274.278 301.148 275.184C300.241 276.091 299.165 276.81 297.98 277.301C296.796 277.792 295.526 278.044 294.244 278.044H285.428L272.82 290.652L260.212 278.044H251.491C250.209 278.044 248.939 277.792 247.755 277.301C246.57 276.81 245.494 276.091 244.587 275.184C243.68 274.278 242.961 273.201 242.471 272.017C241.98 270.832 241.727 269.562 241.727 268.28V242.495C241.727 241.212 241.98 239.943 242.471 238.758C242.961 237.573 243.68 236.497 244.587 235.59C245.494 234.684 246.57 233.964 247.755 233.474C248.939 232.983 250.209 232.73 251.491 232.73H294.244C295.526 232.73 296.796 232.983 297.98 233.474C299.165 233.964 300.241 234.684 301.148 235.59C302.055 236.497 302.774 237.573 303.264 238.758C303.755 239.943 304.008 241.212 304.008 242.495V242.495Z" fill="#0096E0" stroke="#003452" stroke-width="2" stroke-miterlimit="10" stroke-linecap="round"/>
<path d="M336.048 301.27V323.074C336.048 325.261 335.179 327.359 333.633 328.905C332.086 330.452 329.988 331.321 327.801 331.321H320.312L309.695 342.033L298.983 331.321H291.589C290.498 331.334 289.416 331.129 288.404 330.721C287.393 330.312 286.472 329.706 285.696 328.939C284.921 328.172 284.305 327.259 283.884 326.252C283.464 325.245 283.247 324.165 283.247 323.074V301.27C283.247 300.179 283.464 299.098 283.884 298.092C284.305 297.085 284.921 296.171 285.696 295.404C286.472 294.637 287.393 294.032 288.404 293.623C289.416 293.214 290.498 293.01 291.589 293.022H327.801C329.988 293.022 332.086 293.891 333.633 295.438C335.179 296.985 336.048 299.082 336.048 301.27Z" fill="white" stroke="#003452" stroke-width="2" stroke-miterlimit="10" stroke-linecap="round"/>
<path d="M303.344 312.361V318.618H297.751L296.519 318.808C295.043 318.915 293.569 318.584 292.282 317.855C290.995 317.125 289.953 316.031 289.286 314.71C288.62 313.39 288.36 311.901 288.539 310.432C288.718 308.964 289.328 307.581 290.292 306.459C291.256 305.337 292.53 304.525 293.955 304.126C295.379 303.728 296.89 303.76 298.297 304.219C299.703 304.678 300.942 305.543 301.857 306.705C302.772 307.868 303.322 309.275 303.439 310.75L303.344 312.361Z" fill="#0096E0" stroke="#003452" stroke-width="2" stroke-miterlimit="10"/>
<path d="M251.302 290.463V312.74C251.314 313.84 251.107 314.93 250.692 315.948C250.278 316.966 249.664 317.89 248.887 318.668C248.109 319.445 247.185 320.059 246.167 320.474C245.149 320.888 244.059 321.095 242.96 321.083H235.281L224.475 331.985L213.573 321.083H205.99C204.886 321.095 203.791 320.889 202.768 320.475C201.745 320.062 200.814 319.449 200.03 318.673C199.245 317.897 198.622 316.973 198.197 315.955C197.772 314.937 197.553 313.844 197.553 312.74V290.463C197.553 288.225 198.442 286.079 200.024 284.497C201.606 282.915 203.752 282.026 205.99 282.026H242.96C244.063 282.026 245.156 282.245 246.174 282.67C247.192 283.095 248.116 283.718 248.892 284.503C249.668 285.287 250.28 286.218 250.694 287.241C251.108 288.264 251.314 289.359 251.302 290.463V290.463Z" fill="white" stroke="#003452" stroke-width="2" stroke-miterlimit="10" stroke-linecap="round"/>
<path d="M210.255 303.071C212.14 303.071 213.668 301.543 213.668 299.658C213.668 297.773 212.14 296.246 210.255 296.246C208.371 296.246 206.843 297.773 206.843 299.658C206.843 301.543 208.371 303.071 210.255 303.071Z" fill="#0096E0" stroke="#003452" stroke-width="2" stroke-miterlimit="10"/>
<path d="M214.711 310.371H205.705C204.662 310.371 203.904 309.707 204.094 308.854L204.283 307.621C204.662 305.725 206.843 304.303 209.307 304.303H211.108C213.573 304.303 215.753 305.725 216.133 307.621L216.322 308.854C216.512 309.707 215.659 310.371 214.711 310.371Z" fill="#0096E0" stroke="#003452" stroke-width="2" stroke-miterlimit="10"/>
<path d="M258.696 265.626C258.642 265.686 258.577 265.735 258.503 265.768C258.429 265.801 258.35 265.818 258.269 265.818C258.188 265.818 258.108 265.801 258.035 265.768C257.961 265.735 257.896 265.686 257.842 265.626L250.164 258.421C248.942 257.164 248.259 255.481 248.259 253.728C248.259 251.976 248.942 250.292 250.164 249.036V248.846C250.597 248.435 251.118 248.127 251.687 247.944C252.256 247.761 252.858 247.709 253.45 247.791C254.042 247.873 254.608 248.087 255.105 248.417C255.603 248.748 256.02 249.186 256.326 249.699L258.127 252.354L260.117 249.32C260.413 248.809 260.82 248.371 261.31 248.041C261.8 247.71 262.358 247.496 262.943 247.414C263.528 247.331 264.124 247.383 264.685 247.566C265.247 247.749 265.76 248.057 266.184 248.467V248.467C266.823 249.093 267.329 249.841 267.672 250.667C268.014 251.493 268.186 252.38 268.178 253.275C268.169 254.169 267.979 255.052 267.62 255.871C267.262 256.691 266.741 257.429 266.09 258.042L258.696 265.626Z" fill="white" stroke="#003452" stroke-width="2" stroke-miterlimit="10"/>
<path d="M268.27 315.964C273.558 315.964 277.844 311.677 277.844 306.389C277.844 301.101 273.558 296.814 268.27 296.814C262.982 296.814 258.696 301.101 258.696 306.389C258.696 311.677 262.982 315.964 268.27 315.964Z" fill="#0096E0" stroke="#003452" stroke-width="2" stroke-miterlimit="10"/>
<path d="M260.591 464.892C265.879 464.892 270.166 460.605 270.166 455.317C270.166 450.03 265.879 445.743 260.591 445.743C255.304 445.743 251.017 450.03 251.017 455.317C251.017 460.605 255.304 464.892 260.591 464.892Z" fill="#0096E0" stroke="#003452" stroke-width="2" stroke-miterlimit="10"/>
<path d="M695.416 305.157C700.704 305.157 704.99 300.87 704.99 295.582C704.99 290.294 700.704 286.007 695.416 286.007C690.128 286.007 685.842 290.294 685.842 295.582C685.842 300.87 690.128 305.157 695.416 305.157Z" fill="#0096E0" stroke="#003452" stroke-width="2" stroke-miterlimit="10"/>
<path d="M739.022 515.041C744.31 515.041 748.596 510.754 748.596 505.466C748.596 500.178 744.31 495.891 739.022 495.891C733.734 495.891 729.447 500.178 729.447 505.466C729.447 510.754 733.734 515.041 739.022 515.041Z" fill="#0096E0" stroke="#003452" stroke-width="2" stroke-miterlimit="10"/>
<path d="M695.416 295.582L601.19 359.476L539.289 280.319L463.358 381.28L524.406 452L645.933 422.517L739.022 505.466" stroke="#003452" stroke-width="2" stroke-miterlimit="10" stroke-linecap="round"/>
<path d="M260.591 455.318L416.719 493.427L463.358 381.28L357.282 415.407L258.79 390.286L268.27 306.389" stroke="#003452" stroke-width="2" stroke-miterlimit="10" stroke-linecap="round"/>
<path d="M601.19 362.32C604.279 362.32 606.783 359.816 606.783 356.727C606.783 353.638 604.279 351.134 601.19 351.134C598.101 351.134 595.597 353.638 595.597 356.727C595.597 359.816 598.101 362.32 601.19 362.32Z" fill="#005886"/>
<path d="M539.384 287.524C542.472 287.524 544.977 285.02 544.977 281.931C544.977 278.842 542.472 276.338 539.384 276.338C536.295 276.338 533.791 278.842 533.791 281.931C533.791 285.02 536.295 287.524 539.384 287.524Z" fill="#005886"/>
<path d="M645.933 429.532C649.022 429.532 651.526 427.028 651.526 423.939C651.526 420.85 649.022 418.346 645.933 418.346C642.844 418.346 640.34 420.85 640.34 423.939C640.34 427.028 642.844 429.532 645.933 429.532Z" fill="#005886"/>
<path d="M525.164 456.171C528.253 456.171 530.757 453.667 530.757 450.578C530.757 447.489 528.253 444.984 525.164 444.984C522.075 444.984 519.571 447.489 519.571 450.578C519.571 453.667 522.075 456.171 525.164 456.171Z" fill="#005886"/>
<path d="M415.486 497.218C418.575 497.218 421.079 494.714 421.079 491.625C421.079 488.536 418.575 486.032 415.486 486.032C412.398 486.032 409.894 488.536 409.894 491.625C409.894 494.714 412.398 497.218 415.486 497.218Z" fill="#005886"/>
<path d="M357.282 419.673C360.371 419.673 362.875 417.169 362.875 414.08C362.875 410.991 360.371 408.487 357.282 408.487C354.193 408.487 351.689 410.991 351.689 414.08C351.689 417.169 354.193 419.673 357.282 419.673Z" fill="#005886"/>
<path d="M260.686 394.267C263.775 394.267 266.279 391.763 266.279 388.674C266.279 385.585 263.775 383.081 260.686 383.081C257.597 383.081 255.093 385.585 255.093 388.674C255.093 391.763 257.597 394.267 260.686 394.267Z" fill="#005886"/>
<path d="M506.49 466.219H541.564" stroke="#003452" stroke-width="2" stroke-miterlimit="10" stroke-linecap="round"/>
<path d="M506.49 485.179H541.564" stroke="#003452" stroke-width="2" stroke-miterlimit="10" stroke-linecap="round"/>
<path d="M209.213 189.028V175.662C209.213 175.586 209.243 175.514 209.296 175.461C209.349 175.407 209.422 175.377 209.497 175.377H237.367C239.202 175.377 240.962 176.106 242.26 177.404C243.558 178.702 244.287 180.462 244.287 182.298C244.287 184.133 243.558 185.893 242.26 187.191C240.962 188.489 239.202 189.218 237.367 189.218H209.402C209.365 189.218 209.328 189.211 209.293 189.196C209.259 189.182 209.227 189.161 209.201 189.135C209.175 189.108 209.154 189.077 209.139 189.042C209.125 189.008 209.118 188.971 209.118 188.934L209.213 189.028Z" fill="white" stroke="#003452" stroke-width="1.94" stroke-miterlimit="10"/>
<path d="M200.112 207.04C211.944 207.04 221.536 197.533 221.536 185.805C221.536 174.077 211.944 164.57 200.112 164.57C188.28 164.57 178.689 174.077 178.689 185.805C178.689 197.533 188.28 207.04 200.112 207.04Z" fill="white" stroke="#003452" stroke-width="2.01" stroke-miterlimit="10"/>
<path d="M491.178 209.635L492.877 223.467L462.11 227.244C461.208 227.355 460.293 227.287 459.417 227.044C458.541 226.801 457.722 226.388 457.006 225.829C456.29 225.269 455.691 224.574 455.243 223.783C454.796 222.992 454.509 222.121 454.398 221.219V221.219C454.174 219.397 454.683 217.561 455.813 216.115C456.943 214.669 458.601 213.731 460.423 213.507L491.19 209.729L491.178 209.635Z" fill="white" stroke="#003452" stroke-width="2.02" stroke-miterlimit="10"/>
<path d="M520.839 157.033L479.262 220.572C472.783 230.473 475.541 243.741 485.422 250.207C495.303 256.673 508.565 253.888 515.044 243.988L556.621 180.449C563.099 170.548 560.341 157.28 550.461 150.814C540.58 144.348 527.318 147.132 520.839 157.033Z" fill="white" stroke="#003452" stroke-width="2" stroke-miterlimit="10"/>
<path d="M442.878 218.01L419.32 251.16C414.558 257.861 416.13 267.152 422.83 271.914L470.336 305.676C477.036 310.437 486.327 308.866 491.088 302.165L514.646 269.015C519.407 262.315 517.836 253.023 511.136 248.262L463.63 214.5C456.93 209.738 447.639 211.31 442.878 218.01Z" fill="#0096E0" stroke="#003452" stroke-width="2" stroke-miterlimit="10"/>
<path d="M515.211 243.064L498.242 269.038C497.236 270.571 495.662 271.641 493.867 272.015C492.072 272.388 490.202 272.033 488.668 271.029V271.029C487.902 270.538 487.24 269.901 486.72 269.154C486.2 268.406 485.833 267.564 485.639 266.674C485.445 265.785 485.429 264.866 485.591 263.97C485.753 263.075 486.09 262.22 486.583 261.454L503.551 235.48" fill="white"/>
<path d="M515.211 243.064L498.242 269.038C497.236 270.571 495.662 271.641 493.867 272.015C492.072 272.388 490.202 272.033 488.668 271.029V271.029C487.902 270.538 487.24 269.901 486.72 269.154C486.2 268.406 485.833 267.564 485.639 266.674C485.445 265.785 485.429 264.866 485.591 263.97C485.753 263.075 486.09 262.22 486.583 261.454L503.551 235.48" stroke="#003452" stroke-width="2" stroke-miterlimit="10"/>
<path d="M503.646 235.48L484.971 264.014C484.443 264.843 483.754 265.559 482.946 266.119C482.137 266.678 481.225 267.071 480.263 267.274C479.301 267.477 478.308 267.486 477.342 267.301C476.376 267.116 475.457 266.739 474.639 266.194V266.194C473.004 265.093 471.861 263.399 471.454 261.47C471.048 259.541 471.408 257.529 472.458 255.861L491.133 227.327" fill="white"/>
<path d="M503.646 235.48L484.971 264.014C484.443 264.843 483.754 265.559 482.946 266.119C482.137 266.678 481.225 267.071 480.263 267.274C479.301 267.477 478.308 267.486 477.342 267.301C476.376 267.116 475.457 266.739 474.639 266.194V266.194C473.004 265.093 471.861 263.399 471.454 261.47C471.048 259.541 471.408 257.529 472.458 255.861L491.133 227.327" stroke="#003452" stroke-width="2" stroke-miterlimit="10"/>
<path d="M491.133 227.327L473.691 253.965C472.684 255.498 471.11 256.568 469.315 256.942C467.52 257.315 465.65 256.96 464.116 255.956V255.956C463.348 255.466 462.685 254.828 462.167 254.078C461.649 253.327 461.286 252.481 461.101 251.589C460.915 250.696 460.91 249.776 461.086 248.881C461.262 247.987 461.616 247.137 462.126 246.381L479.378 219.743" fill="white"/>
<path d="M491.133 227.327L473.691 253.965C472.684 255.498 471.11 256.568 469.315 256.942C467.52 257.315 465.65 256.96 464.116 255.956V255.956C463.348 255.466 462.685 254.828 462.167 254.078C461.649 253.327 461.286 252.481 461.101 251.589C460.915 250.696 460.91 249.776 461.086 248.881C461.262 247.987 461.616 247.137 462.126 246.381L479.378 219.743" stroke="#003452" stroke-width="2" stroke-miterlimit="10"/>
<path d="M571.519 655.153C575.026 653.352 579.103 655.153 580.714 659.229L593.512 691.461L580.809 697.812L568.012 665.486C566.4 661.504 568.012 656.859 571.519 655.153Z" fill="white" stroke="#003452" stroke-width="2" stroke-miterlimit="10"/>
<path d="M366.762 759.811H711.816V787.018C711.816 799.086 707.022 810.66 698.489 819.193C689.955 827.727 678.382 832.521 666.314 832.521H366.762V759.811Z" fill="#003452" stroke="#003452" stroke-width="2" stroke-miterlimit="10"/>
<path d="M426.578 778.107H347.139V821.714H426.578V778.107Z" fill="white" stroke="#003452" stroke-width="2.1" stroke-miterlimit="10"/>
<path d="M348.107 760.637L363.01 814.742C363.691 817.215 363.362 819.857 362.095 822.086C360.828 824.316 358.728 825.951 356.256 826.632L317.049 837.432L286.211 725.474C299.082 721.928 312.834 723.641 324.441 730.236C336.049 736.83 344.562 747.766 348.107 760.637V760.637Z" fill="white" stroke="#003452" stroke-width="2" stroke-miterlimit="10"/>
<path d="M286.254 725.427L317.066 837.294L310.943 838.981C308.689 839.602 306.28 839.302 304.247 838.147C302.214 836.992 300.723 835.076 300.102 832.822L275.684 744.169C274.609 740.267 275.129 736.097 277.128 732.577C279.127 729.058 282.443 726.476 286.345 725.401V725.401L286.254 725.427Z" fill="#0096E0" stroke="#003452" stroke-width="2" stroke-miterlimit="10"/>
<path d="M347.803 759.242L328.939 764.361" stroke="#003452" stroke-width="2" stroke-miterlimit="10"/>
<path d="M349.604 765.783L330.74 770.997" stroke="#003452" stroke-width="2" stroke-miterlimit="10"/>
<path d="M314.814 726.157C314.814 726.157 311.402 744.264 292.917 749.383" stroke="#003452" stroke-width="2" stroke-miterlimit="10"/>
<path d="M356.429 826.833C356.429 826.833 337.47 790.43 306.567 798.962" stroke="#003452" stroke-width="2" stroke-miterlimit="10"/>
<path d="M396.148 785.691H324.104V829.298H396.148V785.691Z" fill="white" stroke="#003452" stroke-width="2" stroke-miterlimit="10"/>
<path d="M679.396 716.203C679.023 718.604 678.387 720.956 677.5 723.218C673.139 732.509 661.954 738.102 651.242 736.111" fill="white"/>
<path d="M679.396 716.203C679.023 718.604 678.387 720.956 677.5 723.218C673.139 732.509 661.954 738.102 651.242 736.111" stroke="#003452" stroke-width="1.56" stroke-miterlimit="10"/>
<path d="M652 736.3L567.348 721.607C562.391 720.74 557.835 718.331 554.328 714.722C550.821 711.113 548.544 706.489 547.82 701.509C547.179 697.048 547.872 692.496 549.811 688.427C552.021 683.759 555.706 679.948 560.298 677.583C564.89 675.218 570.133 674.432 575.216 675.345L590.857 678.094L659.868 690.039C666.04 691.083 671.545 694.535 675.171 699.638C678.798 704.74 680.249 711.074 679.206 717.246" fill="white"/>
<path d="M652 736.3L567.348 721.607C562.391 720.74 557.835 718.331 554.328 714.722C550.821 711.113 548.544 706.489 547.82 701.509C547.179 697.048 547.872 692.496 549.811 688.427C552.021 683.759 555.706 679.948 560.298 677.583C564.89 675.218 570.133 674.432 575.216 675.345L590.857 678.094L659.868 690.039C666.04 691.083 671.545 694.535 675.171 699.638C678.798 704.74 680.249 711.074 679.206 717.246" stroke="#003452" stroke-width="1.56" stroke-miterlimit="10"/>
<path d="M601.285 729.759L535.687 747.581C530.991 748.869 526.077 749.162 521.262 748.441C516.446 747.721 511.834 746.003 507.72 743.397C503.607 740.792 500.082 737.356 497.373 733.31C494.664 729.264 492.829 724.696 491.986 719.9L479.094 647.474C478.754 645.4 479.182 643.273 480.299 641.492C481.417 639.712 483.145 638.401 485.161 637.805L583.084 609.744L601.285 729.759Z" fill="#0096E0" stroke="#003452" stroke-width="2.15" stroke-miterlimit="10"/>
<path d="M595.123 723.597L510.945 746.539C509.916 746.818 508.84 746.881 507.786 746.722C506.731 746.563 505.722 746.186 504.821 745.615C503.92 745.044 503.148 744.292 502.554 743.407C501.96 742.521 501.557 741.521 501.371 740.472L485.256 649.655C484.922 647.79 485.29 645.869 486.287 644.259C487.284 642.649 488.841 641.465 490.659 640.933L578.724 615.717L595.123 723.597Z" fill="white" stroke="#003452" stroke-width="1.93" stroke-miterlimit="10"/>
<path d="M587.445 738.765L504.594 755.26L484.023 635.814L568.486 610.977L587.445 738.765Z" fill="#0096E0" stroke="#003452" stroke-width="1.68" stroke-miterlimit="10"/>
<path d="M547.726 662.547C551.043 660.651 555.309 662.168 557.11 666.055L571.804 697.528L559.575 704.638L544.882 673.165C542.986 669.278 544.313 664.538 547.726 662.547Z" fill="white" stroke="#003452" stroke-width="2" stroke-miterlimit="10"/>
<path d="M658.92 742.462C658.302 744.968 657.379 747.387 656.171 749.667C650.389 759.147 637.876 763.792 626.595 760.474" fill="white"/>
<path d="M658.92 742.462C658.302 744.968 657.379 747.387 656.171 749.667C650.389 759.147 637.876 763.792 626.595 760.474" stroke="#003452" stroke-width="1.68" stroke-miterlimit="10"/>
<path d="M627.448 760.759L538.72 735.542C533.534 734.077 528.947 731 525.624 726.757C522.302 722.514 520.414 717.324 520.235 711.937C520.143 709.381 520.431 706.825 521.088 704.353C521.759 702.214 522.648 700.149 523.742 698.191C526.651 693.473 531.023 689.834 536.192 687.832C541.36 685.829 547.042 685.572 552.371 687.1L568.77 691.745L641.004 712.316C644.211 713.204 647.212 714.715 649.834 716.764C652.457 718.812 654.65 721.357 656.287 724.254C657.925 727.151 658.975 730.343 659.378 733.646C659.781 736.949 659.529 740.3 658.636 743.505" fill="white"/>
<path d="M627.448 760.759L538.72 735.542C533.534 734.077 528.947 731 525.624 726.757C522.302 722.514 520.414 717.324 520.235 711.937C520.143 709.381 520.431 706.825 521.088 704.353C521.759 702.214 522.648 700.149 523.742 698.191C526.651 693.473 531.023 689.834 536.192 687.832C541.36 685.829 547.042 685.572 552.371 687.1L568.77 691.745L641.004 712.316C644.211 713.204 647.212 714.715 649.834 716.764C652.457 718.812 654.65 721.357 656.287 724.254C657.925 727.151 658.975 730.343 659.378 733.646C659.781 736.949 659.529 740.3 658.636 743.505" stroke="#003452" stroke-width="2" stroke-miterlimit="10"/>
<path d="M690.202 625.955H711.721V771.186H631.524V684.635C631.549 669.08 637.74 654.169 648.738 643.17C659.737 632.17 674.648 625.98 690.202 625.955Z" fill="white" stroke="#003452" stroke-width="1.68" stroke-miterlimit="10"/>
<path d="M688.97 629.842C691.001 630.761 692.886 631.975 694.563 633.444C698.807 637.015 701.75 641.89 702.934 647.308C704.117 652.727 703.473 658.385 701.104 663.4" fill="#0096E0"/>
<path d="M688.97 629.842C691.001 630.761 692.886 631.975 694.563 633.444C698.807 637.015 701.75 641.89 702.934 647.308C704.117 652.727 703.473 658.385 701.104 663.4" stroke="#003452" stroke-width="1.68" stroke-miterlimit="10"/>
<path d="M703.284 669.467L656.455 748.909C653.746 753.575 649.62 757.257 644.678 759.422C639.735 761.586 634.232 762.121 628.965 760.948C626.507 760.372 624.145 759.447 621.95 758.199C620.005 757.047 618.221 755.645 616.641 754.028C612.783 750.055 610.339 744.922 609.688 739.423C609.037 733.923 610.215 728.361 613.039 723.597L621.666 708.904L659.773 644.156C663.143 638.351 668.674 634.115 675.157 632.374C681.64 630.633 688.549 631.529 694.373 634.866" fill="#0096E0"/>
<path d="M703.284 669.467L656.455 748.909C653.746 753.575 649.62 757.257 644.678 759.422C639.735 761.586 634.232 762.121 628.965 760.948C626.507 760.372 624.145 759.447 621.95 758.199C620.005 757.047 618.221 755.645 616.641 754.028C612.783 750.055 610.339 744.922 609.688 739.423C609.037 733.923 610.215 728.361 613.039 723.597L621.666 708.904L659.773 644.156C663.143 638.351 668.674 634.115 675.157 632.374C681.64 630.633 688.549 631.529 694.373 634.866" stroke="#003452" stroke-width="1.68" stroke-miterlimit="10"/>
<path d="M621.76 570.403C617.589 583.58 619.77 599.317 630.861 608.038C646.597 620.457 671.812 614.769 685.558 600.075C692.132 593.029 695.644 583.663 695.324 574.032C695.004 564.4 690.878 555.288 683.851 548.694C670.201 535.991 655.128 523.478 636.738 544.902C633.225 549.063 629.285 552.844 624.983 556.183L613.892 564.715C613.703 564.81 613.703 565.094 613.987 565.189L621.76 570.403Z" fill="white" stroke="#003452" stroke-width="1.68" stroke-miterlimit="10"/>
<path d="M753.525 654.11L752.577 655.248C746.7 662.452 746.605 653.162 738.832 640.08C731.059 626.998 721.864 605.763 721.674 606.616C721.485 607.469 747.743 659.988 741.771 663.969C735.799 667.951 729.637 665.96 713.522 683.403C712.764 684.161 707.834 686.626 705.464 687.384C696.743 690.418 685.178 678.284 674.561 669.373C671.338 666.623 682.998 609.081 681.955 611.545C679.585 617.518 671.812 666.529 666.504 662.832C661.195 659.134 656.266 655.058 652.664 654.868C649.061 654.679 660.058 620.836 660.058 620.836C660.058 620.836 649.82 654.584 647.071 654.774C635.032 655.437 622.424 658.945 623.277 641.597C624.035 626.808 652.095 608.322 661.1 589.173C661.184 588.988 661.317 588.828 661.484 588.712C661.65 588.595 661.845 588.525 662.048 588.509C665.556 588.225 669.442 586.803 670.39 580.452C670.959 575.996 666.978 572.962 663.849 572.394H663.281C663.18 572.394 663.084 572.354 663.012 572.283C662.941 572.212 662.901 572.115 662.901 572.015C662.28 570.202 661.419 568.48 660.342 566.895C650.483 551.917 648.967 544.902 646.881 540.162C644.796 535.422 643.942 528.976 655.413 525.942C666.883 522.909 676.836 521.013 695.037 527.554C718.736 535.991 722.433 559.501 727.172 594.103C731.912 628.704 767.745 636.098 753.525 654.11Z" fill="#003452" stroke="#003452" stroke-width="1.68" stroke-miterlimit="10"/>
<path d="M651.621 533.337C651.621 533.337 658.541 560.07 672.097 568.697" stroke="#003452" stroke-width="1.68" stroke-miterlimit="10"/>
<path d="M712.1 548.694C721.367 548.694 728.879 541.182 728.879 531.915C728.879 522.648 721.367 515.135 712.1 515.135C702.834 515.135 695.321 522.648 695.321 531.915C695.321 541.182 702.834 548.694 712.1 548.694Z" fill="#003452" stroke="white" stroke-width="1.68" stroke-miterlimit="10"/>
<path d="M656.55 534.38C656.55 534.38 664.039 551.159 672.855 554.856" stroke="#003452" stroke-width="1.68" stroke-miterlimit="10"/>
<path d="M592.658 771.186H711.721V798.394C711.733 804.365 710.568 810.28 708.292 815.8C706.015 821.32 702.673 826.337 698.455 830.563C694.237 834.79 689.228 838.143 683.712 840.431C678.197 842.719 672.285 843.897 666.314 843.897H366.762V771.186" fill="#003452"/>
<path d="M592.658 771.186H711.721V798.394C711.733 804.365 710.568 810.28 708.292 815.8C706.015 821.32 702.673 826.337 698.455 830.563C694.237 834.79 689.228 838.143 683.712 840.431C678.197 842.719 672.285 843.897 666.314 843.897H366.762V771.186" stroke="#003452" stroke-width="2" stroke-miterlimit="10"/>
<path d="M366.762 771.186H592.658" stroke="white" stroke-width="2" stroke-miterlimit="10" stroke-linecap="square"/>
<path d="M341.55 772.219L356.452 826.325C357.133 828.797 356.804 831.439 355.538 833.668C354.271 835.898 352.171 837.534 349.698 838.215L310.491 849.014L279.654 737.056C292.525 733.51 306.276 735.223 317.884 741.818C329.492 748.412 338.005 759.348 341.55 772.219V772.219Z" fill="white" stroke="#003452" stroke-width="2" stroke-miterlimit="10"/>
<path d="M279.697 737.104L310.534 849.062L304.411 850.749C302.157 851.37 299.748 851.07 297.715 849.915C295.682 848.76 294.191 846.845 293.57 844.59L269.127 755.846C268.052 751.944 268.571 747.774 270.571 744.254C272.57 740.735 275.886 738.153 279.788 737.078V737.078L279.697 737.104Z" fill="#0096E0" stroke="#003452" stroke-width="2" stroke-miterlimit="10"/>
<path d="M341.167 770.807L322.303 776.021" stroke="#003452" stroke-width="2" stroke-miterlimit="10"/>
<path d="M342.968 777.443L324.104 782.657" stroke="#003452" stroke-width="2" stroke-miterlimit="10"/>
<path d="M308.179 737.817C308.179 737.817 304.861 755.924 286.281 761.043" stroke="#003452" stroke-width="2" stroke-miterlimit="10"/>
<path d="M349.794 838.399C349.794 838.399 330.835 802.091 299.931 810.623" stroke="#003452" stroke-width="2" stroke-miterlimit="10"/>
<path d="M477.776 635.549L498.355 754.186C496.631 754.485 494.858 754.087 493.427 753.079C491.996 752.071 491.024 750.536 490.724 748.811L472.385 643.088C472.113 641.375 472.526 639.624 473.535 638.213C474.544 636.803 476.068 635.846 477.776 635.549V635.549Z" fill="white" stroke="#003452" stroke-width="1.71077" stroke-miterlimit="10"/>
<path d="M639.657 556.26C640.658 554.601 640.633 552.752 639.602 552.13C638.571 551.508 636.924 552.349 635.924 554.008C634.923 555.666 634.948 557.515 635.979 558.137C637.01 558.759 638.657 557.919 639.657 556.26Z" fill="#003452"/>
<path d="M647.829 555.994C647.601 553.854 646.927 551.787 645.849 549.925C644.771 548.064 643.314 546.449 641.573 545.186" stroke="#003452" stroke-width="2" stroke-miterlimit="10" stroke-linecap="round"/>
<path d="M620.054 586.614C620.054 586.614 624.699 589.647 628.017 585.666" stroke="#003452" stroke-width="1.99" stroke-miterlimit="10" stroke-linecap="round"/>
<path d="M543.555 736.869L513.125 728.717C509.428 727.674 506.964 723.408 507.817 719.142C508.575 714.876 512.272 712.316 516.064 713.359L546.398 721.512" fill="white"/>
<path d="M543.555 736.869L513.125 728.717C509.428 727.674 506.964 723.408 507.817 719.142C508.575 714.876 512.272 712.316 516.064 713.359L546.398 721.512" stroke="#003452" stroke-width="2" stroke-miterlimit="10"/>
<path d="M546.398 721.607L510.282 711.842C505.921 710.705 503.172 705.775 504.025 700.846C504.973 695.916 509.239 692.883 513.599 694.115L549.716 703.879" fill="white"/>
<path d="M546.398 721.607L510.282 711.842C505.921 710.705 503.172 705.775 504.025 700.846C504.973 695.916 509.239 692.883 513.599 694.115L549.716 703.879" stroke="#003452" stroke-width="2" stroke-miterlimit="10"/>
<path d="M549.716 703.879L517.77 695.158C513.884 694.02 511.419 689.47 512.272 684.92C513.125 680.369 517.012 677.525 520.899 678.568L553.129 687.29" fill="white"/>
<path d="M549.716 703.879L517.77 695.158C513.884 694.02 511.419 689.47 512.272 684.92C513.125 680.369 517.012 677.525 520.899 678.568L553.129 687.29" stroke="#003452" stroke-width="2" stroke-miterlimit="10"/>
<path d="M221.441 185.616V214.908C221.391 216.702 220.638 218.404 219.342 219.646C218.047 220.888 216.315 221.57 214.521 221.544C212.727 221.596 210.984 220.938 209.671 219.714C208.358 218.489 207.58 216.797 207.506 215.003V185.71" fill="white"/>
<path d="M221.441 185.616V214.908C221.391 216.702 220.638 218.404 219.342 219.646C218.047 220.888 216.315 221.57 214.521 221.544C212.727 221.596 210.984 220.938 209.671 219.714C208.358 218.489 207.58 216.797 207.506 215.003V185.71" stroke="#003452" stroke-width="1.94" stroke-miterlimit="10"/>
<path d="M207.506 185.71L207.696 217.942C207.671 218.888 207.46 219.82 207.076 220.685C206.691 221.55 206.139 222.33 205.452 222.982C204.766 223.633 203.957 224.143 203.074 224.482C202.19 224.821 201.248 224.982 200.302 224.957V224.957C199.348 224.995 198.396 224.843 197.501 224.51C196.606 224.177 195.787 223.669 195.09 223.016C194.393 222.363 193.833 221.579 193.442 220.708C193.051 219.837 192.837 218.896 192.813 217.942L192.623 185.805" fill="white"/>
<path d="M207.506 185.71L207.696 217.942C207.671 218.888 207.46 219.82 207.076 220.685C206.691 221.55 206.139 222.33 205.452 222.982C204.766 223.633 203.957 224.143 203.074 224.482C202.19 224.821 201.248 224.982 200.302 224.957V224.957C199.348 224.995 198.396 224.843 197.501 224.51C196.606 224.177 195.787 223.669 195.09 223.016C194.393 222.363 193.833 221.579 193.442 220.708C193.051 219.837 192.837 218.896 192.813 217.942L192.623 185.805" stroke="#003452" stroke-width="1.94" stroke-miterlimit="10"/>
<path d="M192.623 185.805V215.856C192.718 219.459 189.59 222.397 185.703 222.397C184.819 222.423 183.939 222.273 183.113 221.958C182.287 221.643 181.531 221.168 180.888 220.561C180.245 219.953 179.729 219.225 179.368 218.418C179.006 217.611 178.808 216.74 178.783 215.856L178.499 185.9" fill="white"/>
<path d="M192.623 185.805V215.856C192.718 219.459 189.59 222.397 185.703 222.397C184.819 222.423 183.939 222.273 183.113 221.958C182.287 221.643 181.531 221.168 180.888 220.561C180.245 219.953 179.729 219.225 179.368 218.418C179.006 217.611 178.808 216.74 178.783 215.856L178.499 185.9" stroke="#003452" stroke-width="1.94" stroke-miterlimit="10"/>
<path d="M492.176 200.215L527.155 224.767" stroke="#003452" stroke-width="2" stroke-miterlimit="10" stroke-linecap="round"/>
<path d="M497.01 192.82L532.179 217.184" stroke="#003452" stroke-width="2" stroke-miterlimit="10" stroke-linecap="round"/>
<path d="M491.614 847.894C501.393 830.749 494.906 808.628 477.125 798.485C459.343 788.343 437.001 794.019 427.222 811.165C417.443 828.31 423.93 850.431 441.711 860.573C459.493 870.716 481.835 865.039 491.614 847.894Z" fill="white" stroke="#003452" stroke-width="1.72" stroke-miterlimit="10"/>
<path d="M484.203 843.667C491.725 830.478 486.727 813.457 473.038 805.649C459.35 797.841 442.155 802.203 434.633 815.392C427.111 828.58 432.109 845.601 445.797 853.409C459.486 861.217 476.681 856.856 484.203 843.667Z" fill="white"/>
<path d="M484.203 843.762C491.725 830.573 486.727 813.552 473.038 805.744C459.35 797.936 442.155 802.298 434.633 815.487C427.111 828.675 432.109 845.696 445.797 853.504C459.486 861.312 476.681 856.95 484.203 843.762Z" stroke="#003452" stroke-width="1.72" stroke-miterlimit="10" stroke-linecap="round" stroke-dasharray="5.16 7.22"/>
<path d="M489.711 851.481C487.51 856.415 484.187 860.768 480.007 864.191C475.827 867.614 470.905 870.014 465.633 871.199C456.119 873.367 446.137 871.803 437.742 866.83C429.347 861.856 423.179 853.852 420.511 844.466C419.088 839.468 418.81 834.213 419.696 829.093C420.582 823.973 422.61 819.118 425.63 814.888C422.266 822.332 421.628 830.722 423.828 838.588C426.477 847.992 432.637 856.018 441.034 861.011C449.431 866.004 459.425 867.581 468.951 865.416C477.344 863.471 484.731 858.512 489.711 851.481Z" fill="white" stroke="#003452" stroke-width="1.72" stroke-miterlimit="10"/>
<path d="M419.563 839.726L422.881 833.848" stroke="#003452" stroke-width="1.72" stroke-miterlimit="10"/>
<path d="M423.734 852.429L427.051 846.646" stroke="#003452" stroke-width="1.72" stroke-miterlimit="10"/>
<path d="M430.18 860.961L433.498 855.178" stroke="#003452" stroke-width="1.72" stroke-miterlimit="10"/>
<path d="M439.47 867.786L442.787 862.003" stroke="#003452" stroke-width="1.72" stroke-miterlimit="10"/>
<path d="M449.992 871.483L453.215 865.606" stroke="#003452" stroke-width="1.72" stroke-miterlimit="10"/>
<path d="M460.419 872.052L463.737 866.175" stroke="#003452" stroke-width="1.72" stroke-miterlimit="10"/>
<path d="M472.553 868.829L475.871 863.046" stroke="#003452" stroke-width="1.72" stroke-miterlimit="10"/>
</g>
<defs>
<clipPath id="clip0_301_2">
<rect width="978" height="873" fill="white"/>
</clipPath>
</defs>
</svg>
