<svg width="181" height="24" viewBox="0 0 181 24" fill="none" xmlns="http://www.w3.org/2000/svg">
<path fill-rule="evenodd" clip-rule="evenodd" d="M28 3.66667H17.3333L14.6667 1H6.66667C5.2 1 4.01333 2.2 4.01333 3.66667L4 19.6667C4 21.1333 5.2 22.3333 6.66667 22.3333H29.0267C29.9333 22.3333 30.6667 21.5867 30.6667 20.6933V6.33333C30.6667 4.86667 29.4667 3.66667 28 3.66667ZM6.66667 19.6667H28V6.33333H16.2267L13.56 3.66667H6.66667V19.6667Z" fill="white"/>
<path d="M20 17H9.33333V14.3333H20V17Z" fill="white"/>
<path d="M25.3333 11.6667H9.33333V9H25.3333V11.6667Z" fill="white"/>
<path d="M52.78 19.2C52.3667 19.2 51.9533 19.14 51.54 19.02C51.1267 18.9133 50.7133 18.74 50.3 18.5C49.9 18.26 49.4867 17.9533 49.06 17.58C48.6333 17.1933 48.1933 16.7333 47.74 16.2C47.3 15.6667 46.84 15.0467 46.36 14.34C46.28 14.3533 46.1667 14.36 46.02 14.36C45.8867 14.36 45.7733 14.36 45.68 14.36C45.5067 14.36 45.3133 14.36 45.1 14.36C44.8867 14.36 44.6867 14.3533 44.5 14.34V19H41.1V5C41.8867 4.94667 42.6067 4.90667 43.26 4.88C43.9267 4.85333 44.5333 4.83333 45.08 4.82C45.64 4.80667 46.1533 4.8 46.62 4.8C47.7267 4.8 48.6667 4.88667 49.44 5.06C50.2267 5.22 50.8667 5.47333 51.36 5.82C51.8667 6.16667 52.2333 6.62 52.46 7.18C52.6867 7.72667 52.8 8.38667 52.8 9.16C52.8 9.94667 52.68 10.6267 52.44 11.2C52.2 11.76 51.8533 12.22 51.4 12.58C50.96 12.94 50.44 13.22 49.84 13.42C50.1867 13.8467 50.5133 14.2133 50.82 14.52C51.14 14.8267 51.4333 15.0867 51.7 15.3C51.98 15.5133 52.24 15.6733 52.48 15.78C52.7333 15.8733 52.9733 15.92 53.2 15.92C53.24 15.92 53.2933 15.92 53.36 15.92C53.4267 15.9067 53.48 15.9 53.52 15.9L53.54 19.14C53.4467 19.1533 53.34 19.1667 53.22 19.18C53.1 19.1933 52.9533 19.2 52.78 19.2ZM46.58 11.88C47.0467 11.88 47.4533 11.84 47.8 11.76C48.1467 11.68 48.4267 11.5533 48.64 11.38C48.8667 11.1933 49.0333 10.96 49.14 10.68C49.26 10.3867 49.32 10.0267 49.32 9.6C49.32 9.08 49.24 8.66667 49.08 8.36C48.92 8.04 48.6467 7.80667 48.26 7.66C47.8867 7.51333 47.3667 7.44 46.7 7.44C46.4867 7.44 46.3 7.44 46.14 7.44C45.9933 7.44 45.84 7.44667 45.68 7.46C45.5333 7.46 45.3667 7.46667 45.18 7.48C44.9933 7.49333 44.7667 7.50667 44.5 7.52V11.82C44.7 11.8333 44.88 11.8467 45.04 11.86C45.2 11.86 45.36 11.8667 45.52 11.88C45.68 11.88 45.84 11.88 46 11.88C46.1733 11.88 46.3667 11.88 46.58 11.88ZM60.0514 19.2C59.1981 19.2 58.4447 19.1 57.7914 18.9C57.1381 18.6867 56.5781 18.3667 56.1114 17.94C55.6581 17.5 55.3114 16.94 55.0714 16.26C54.8314 15.5667 54.7114 14.7467 54.7114 13.8C54.7114 12.72 54.8447 11.8067 55.1114 11.06C55.3914 10.3133 55.7714 9.70667 56.2514 9.24C56.7447 8.77333 57.3247 8.44 57.9914 8.24C58.6581 8.02667 59.3847 7.92 60.1714 7.92C61.7714 7.92 62.9447 8.31333 63.6914 9.1C64.4514 9.88667 64.8314 11.1667 64.8314 12.94C64.8314 13.0733 64.8247 13.2467 64.8114 13.46C64.8114 13.66 64.8047 13.86 64.7914 14.06C64.4581 14.0867 64.0514 14.12 63.5714 14.16C63.0914 14.2 62.5581 14.24 61.9714 14.28C61.3847 14.32 60.7647 14.3533 60.1114 14.38C59.4581 14.4067 58.7914 14.4267 58.1114 14.44C58.0981 14.48 58.0914 14.52 58.0914 14.56C58.0914 14.6 58.0914 14.6467 58.0914 14.7C58.0914 15.14 58.1781 15.5067 58.3514 15.8C58.5381 16.08 58.8181 16.2933 59.1914 16.44C59.5647 16.5733 60.0514 16.64 60.6514 16.64C61.0247 16.64 61.4181 16.62 61.8314 16.58C62.2447 16.54 62.6647 16.4867 63.0914 16.42C63.5181 16.34 63.9447 16.2533 64.3714 16.16L64.7514 18.52C64.2847 18.6667 63.8047 18.7933 63.3114 18.9C62.8181 19.0067 62.3047 19.08 61.7714 19.12C61.2381 19.1733 60.6647 19.2 60.0514 19.2ZM58.1314 12.5C58.4781 12.5 58.8247 12.4933 59.1714 12.48C59.5181 12.4667 59.8447 12.4533 60.1514 12.44C60.4581 12.4133 60.7314 12.3933 60.9714 12.38C61.2114 12.3667 61.4114 12.36 61.5714 12.36C61.5581 11.8267 61.4914 11.4067 61.3714 11.1C61.2514 10.78 61.0781 10.5533 60.8514 10.42C60.6247 10.2867 60.3381 10.22 59.9914 10.22C59.7514 10.22 59.5314 10.2533 59.3314 10.32C59.1314 10.3867 58.9447 10.5067 58.7714 10.68C58.6114 10.84 58.4714 11.0733 58.3514 11.38C58.2447 11.6733 58.1714 12.0467 58.1314 12.5ZM66.8028 23.2V8.08H69.7628L69.8628 9C70.4628 8.62667 71.0428 8.35333 71.6028 8.18C72.1628 8.00667 72.7361 7.92 73.3228 7.92C74.5228 7.92 75.4428 8.38667 76.0828 9.32C76.7228 10.2533 77.0428 11.6 77.0428 13.36C77.0428 14.6667 76.8495 15.7533 76.4628 16.62C76.0895 17.4867 75.5161 18.1333 74.7428 18.56C73.9695 18.9867 72.9895 19.2 71.8028 19.2C71.5495 19.2 71.2761 19.1867 70.9828 19.16C70.6895 19.1333 70.3895 19.0933 70.0828 19.04V23.2H66.8028ZM71.5828 16.82C72.0495 16.82 72.4361 16.72 72.7428 16.52C73.0495 16.32 73.2761 15.9933 73.4228 15.54C73.5695 15.0733 73.6428 14.4533 73.6428 13.68C73.6428 12.9333 73.5828 12.34 73.4628 11.9C73.3428 11.46 73.1628 11.14 72.9228 10.94C72.6828 10.7267 72.3828 10.62 72.0228 10.62C71.8228 10.62 71.6161 10.64 71.4028 10.68C71.2028 10.72 70.9961 10.78 70.7828 10.86C70.5695 10.94 70.3361 11.0467 70.0828 11.18V16.58C70.3495 16.66 70.6095 16.72 70.8628 16.76C71.1161 16.8 71.3561 16.82 71.5828 16.82ZM78.5825 13.54C78.5825 12.66 78.6692 11.8733 78.8425 11.18C79.0158 10.4867 79.3025 9.9 79.7025 9.42C80.1025 8.92667 80.6425 8.55333 81.3225 8.3C82.0025 8.04667 82.8492 7.92 83.8625 7.92C84.8758 7.92 85.7225 8.04667 86.4025 8.3C87.0825 8.55333 87.6225 8.92667 88.0225 9.42C88.4225 9.9 88.7092 10.4867 88.8825 11.18C89.0558 11.8733 89.1425 12.66 89.1425 13.54C89.1425 14.4333 89.0492 15.2333 88.8625 15.94C88.6758 16.6467 88.3758 17.24 87.9625 17.72C87.5492 18.2 87.0025 18.5667 86.3225 18.82C85.6558 19.0733 84.8358 19.2 83.8625 19.2C82.8892 19.2 82.0625 19.0733 81.3825 18.82C80.7158 18.5667 80.1758 18.2 79.7625 17.72C79.3492 17.24 79.0492 16.6467 78.8625 15.94C78.6758 15.2333 78.5825 14.4333 78.5825 13.54ZM81.9625 13.54C81.9625 14.34 82.0225 14.9733 82.1425 15.44C82.2758 15.9067 82.4825 16.24 82.7625 16.44C83.0425 16.6267 83.4092 16.72 83.8625 16.72C84.3292 16.72 84.6958 16.6267 84.9625 16.44C85.2425 16.24 85.4492 15.9067 85.5825 15.44C85.7158 14.9733 85.7825 14.34 85.7825 13.54C85.7825 12.74 85.7225 12.1133 85.6025 11.66C85.4825 11.2067 85.2825 10.8867 85.0025 10.7C84.7225 10.5 84.3425 10.4 83.8625 10.4C83.3825 10.4 83.0025 10.5 82.7225 10.7C82.4558 10.8867 82.2625 11.2067 82.1425 11.66C82.0225 12.1133 81.9625 12.74 81.9625 13.54ZM94.0441 8.12V9.38C94.4174 9.03333 94.7574 8.75333 95.0641 8.54C95.3707 8.32667 95.6841 8.17333 96.0041 8.08C96.3241 7.97333 96.6774 7.92 97.0641 7.92C97.2774 7.92 97.5041 7.94 97.7441 7.98C97.9841 8.00667 98.2241 8.06 98.4641 8.14L97.9441 11.1C97.7041 11.0467 97.4641 11.0067 97.2241 10.98C96.9841 10.94 96.7641 10.92 96.5641 10.92C96.2174 10.92 95.8641 10.98 95.5041 11.1C95.1441 11.2067 94.7574 11.4067 94.3441 11.7V19H91.0841V8.12H94.0441ZM104.14 19.2C103.42 19.2 102.813 19.0667 102.32 18.8C101.827 18.52 101.453 18.0933 101.2 17.52C100.96 16.9333 100.84 16.1733 100.84 15.24V10.5H99.2802V8.32L100.84 8.12L101.22 5.8H104.1V8.12H106.84V10.5H104.1V14.98C104.1 15.5133 104.193 15.8933 104.38 16.12C104.58 16.3333 104.887 16.44 105.3 16.44C105.527 16.44 105.767 16.42 106.02 16.38C106.273 16.3267 106.547 16.2667 106.84 16.2L107.28 18.68C106.72 18.8667 106.18 19 105.66 19.08C105.14 19.16 104.633 19.2 104.14 19.2ZM109.022 19V5H112.542L115.922 11.58L119.342 5H122.682V19H119.602V9.96L116.622 15.7H115.022L112.102 10.02V19H109.022ZM124.545 16.02C124.545 15.3667 124.665 14.8267 124.905 14.4C125.158 13.9733 125.538 13.6333 126.045 13.38C126.565 13.1267 127.218 12.9333 128.005 12.8C128.792 12.6533 129.725 12.54 130.805 12.46V11.8C130.805 11.4 130.638 11.1067 130.305 10.92C129.972 10.7333 129.492 10.64 128.865 10.64C128.585 10.64 128.265 10.6533 127.905 10.68C127.545 10.7067 127.172 10.7533 126.785 10.82C126.412 10.8867 126.025 10.98 125.625 11.1L125.105 8.54C125.705 8.35333 126.365 8.20667 127.085 8.1C127.805 7.98 128.472 7.92 129.085 7.92C130.258 7.92 131.205 8.06667 131.925 8.36C132.658 8.64 133.192 9.06667 133.525 9.64C133.872 10.2133 134.045 10.92 134.045 11.76V15.56C134.045 15.8933 134.092 16.1133 134.185 16.22C134.292 16.3267 134.412 16.38 134.545 16.38C134.612 16.38 134.685 16.38 134.765 16.38C134.858 16.3667 134.938 16.3467 135.005 16.32L135.265 18.66C134.998 18.82 134.698 18.9467 134.365 19.04C134.045 19.1467 133.685 19.2 133.285 19.2C132.725 19.2 132.265 19.1 131.905 18.9C131.558 18.6867 131.298 18.3667 131.125 17.94C130.778 18.1933 130.425 18.42 130.065 18.62C129.718 18.8067 129.338 18.9467 128.925 19.04C128.525 19.1467 128.072 19.2 127.565 19.2C127.112 19.2 126.698 19.1267 126.325 18.98C125.965 18.8333 125.645 18.6267 125.365 18.36C125.098 18.08 124.892 17.7467 124.745 17.36C124.612 16.9733 124.545 16.5267 124.545 16.02ZM127.845 15.82C127.845 16.2467 127.938 16.56 128.125 16.76C128.312 16.96 128.558 17.06 128.865 17.06C129.078 17.06 129.298 17.0267 129.525 16.96C129.765 16.8933 129.998 16.8 130.225 16.68C130.452 16.5467 130.645 16.4 130.805 16.24V14.2C130.312 14.24 129.878 14.2933 129.505 14.36C129.145 14.4133 128.838 14.5 128.585 14.62C128.332 14.74 128.145 14.9 128.025 15.1C127.905 15.2867 127.845 15.5267 127.845 15.82ZM140.503 19.2C139.783 19.2 139.177 19.0667 138.683 18.8C138.19 18.52 137.817 18.0933 137.563 17.52C137.323 16.9333 137.203 16.1733 137.203 15.24V10.5H135.643V8.32L137.203 8.12L137.583 5.8H140.463V8.12H143.203V10.5H140.463V14.98C140.463 15.5133 140.557 15.8933 140.743 16.12C140.943 16.3333 141.25 16.44 141.663 16.44C141.89 16.44 142.13 16.42 142.383 16.38C142.637 16.3267 142.91 16.2667 143.203 16.2L143.643 18.68C143.083 18.8667 142.543 19 142.023 19.08C141.503 19.16 140.997 19.2 140.503 19.2ZM149.852 19.2C148.999 19.2 148.246 19.1 147.592 18.9C146.939 18.6867 146.379 18.3667 145.912 17.94C145.459 17.5 145.112 16.94 144.872 16.26C144.632 15.5667 144.512 14.7467 144.512 13.8C144.512 12.72 144.646 11.8067 144.912 11.06C145.192 10.3133 145.572 9.70667 146.052 9.24C146.546 8.77333 147.126 8.44 147.792 8.24C148.459 8.02667 149.186 7.92 149.972 7.92C151.572 7.92 152.746 8.31333 153.492 9.1C154.252 9.88667 154.632 11.1667 154.632 12.94C154.632 13.0733 154.626 13.2467 154.612 13.46C154.612 13.66 154.606 13.86 154.592 14.06C154.259 14.0867 153.852 14.12 153.372 14.16C152.892 14.2 152.359 14.24 151.772 14.28C151.186 14.32 150.566 14.3533 149.912 14.38C149.259 14.4067 148.592 14.4267 147.912 14.44C147.899 14.48 147.892 14.52 147.892 14.56C147.892 14.6 147.892 14.6467 147.892 14.7C147.892 15.14 147.979 15.5067 148.152 15.8C148.339 16.08 148.619 16.2933 148.992 16.44C149.366 16.5733 149.852 16.64 150.452 16.64C150.826 16.64 151.219 16.62 151.632 16.58C152.046 16.54 152.466 16.4867 152.892 16.42C153.319 16.34 153.746 16.2533 154.172 16.16L154.552 18.52C154.086 18.6667 153.606 18.7933 153.112 18.9C152.619 19.0067 152.106 19.08 151.572 19.12C151.039 19.1733 150.466 19.2 149.852 19.2ZM147.932 12.5C148.279 12.5 148.626 12.4933 148.972 12.48C149.319 12.4667 149.646 12.4533 149.952 12.44C150.259 12.4133 150.532 12.3933 150.772 12.38C151.012 12.3667 151.212 12.36 151.372 12.36C151.359 11.8267 151.292 11.4067 151.172 11.1C151.052 10.78 150.879 10.5533 150.652 10.42C150.426 10.2867 150.139 10.22 149.792 10.22C149.552 10.22 149.332 10.2533 149.132 10.32C148.932 10.3867 148.746 10.5067 148.572 10.68C148.412 10.84 148.272 11.0733 148.152 11.38C148.046 11.6733 147.972 12.0467 147.932 12.5Z" fill="white"/>
</svg>
